<?xml version="1.0" encoding="utf-8"?>
<!-- Generator: Adobe Illustrator 22.0.1, SVG Export Plug-In . SVG Version: 6.00 Build 0)  -->
<svg version="1.1" id="Layer_1" xmlns="http://www.w3.org/2000/svg" xmlns:xlink="http://www.w3.org/1999/xlink" x="0px" y="0px"
	 viewBox="0 0 25 25" style="enable-background:new 0 0 25 25;" xml:space="preserve">
<style type="text/css">
	.st0{fill:#FFFFFF;}
	.st1{fill:none;stroke:url(#SVGID_1_);stroke-width:0.5;stroke-linecap:round;stroke-miterlimit:10;}
</style>
<g>
	<path class="st0" d="M1.6,1.9h22.1v21.1H1.6V1.9z M5.5,19.4l1,1.1l2.2-2.1 M5.5,12.4l1,1.1l2.2-2.1 M5.5,5.4l1,1.1l2.2-2.1
		 M12.9,19.8h6.6 M12.9,12.8h6.6 M12.9,5.8h6.6"/>
	<linearGradient id="SVGID_1_" gradientUnits="userSpaceOnUse" x1="1.3815" y1="12.5" x2="23.9876" y2="12.5">
		<stop  offset="0" style="stop-color:#00A3AD"/>
		<stop  offset="1" style="stop-color:#003DA5"/>
	</linearGradient>
	<path class="st1" d="M1.6,1.9C1.6,1.9,1.6,1.9,1.6,1.9l22.1,0c0,0,0,0,0,0v21.1c0,0,0,0,0,0H1.6c0,0,0,0,0,0V1.9z M5.5,19.4l1,1.1
		c0,0,0,0,0,0l2.2-2.1 M5.5,12.4l1,1.1c0,0,0,0,0,0l2.2-2.1 M5.5,5.4l1,1.1c0,0,0,0,0,0l2.2-2.1 M12.9,19.8h6.6 M12.9,12.8h6.6
		 M12.9,5.8h6.6"/>
</g>
</svg>
