<?xml version="1.0" encoding="utf-8"?>
<!-- Generator: Adobe Illustrator 22.0.1, SVG Export Plug-In . SVG Version: 6.00 Build 0)  -->
<svg version="1.1" id="Layer_1" xmlns="http://www.w3.org/2000/svg" xmlns:xlink="http://www.w3.org/1999/xlink" x="0px" y="0px"
	 viewBox="0 0 25 25" style="enable-background:new 0 0 25 25;" xml:space="preserve">
<style type="text/css">
	.st0{fill:url(#XMLID_3_);}
</style>
<linearGradient id="XMLID_3_" gradientUnits="userSpaceOnUse" x1="3.2089" y1="17.8" x2="20.7156" y2="17.8" gradientTransform="matrix(1 0 0 1 0 -5.25)">
	<stop  offset="0" style="stop-color:#00A3AD"/>
	<stop  offset="1" style="stop-color:#003DA5"/>
</linearGradient>
<path id="XMLID_1_" class="st0" d="M5.6,2.2c0,0,4.5,2.1,4.5,6c0,3.4-5.2,6.3-6.6,6.9c-0.2,0.1-0.3,0.3-0.3,0.5c0.2,4,4,7.2,8.8,7.2
	c4.8,0,8.6-3.3,8.8-7.3c0-0.2,0-0.3-0.1-0.5C20.1,13.4,15.6,2.2,5.6,2.2z M12.5,20.7c-1.6,0-3-1.2-3-2.6c0,0,2.3-1.1,2.3-2.4
	s-1.5-2-1.5-2c3.7,0,5.1,4.4,5.1,4.4C15.4,19.5,14.1,20.7,12.5,20.7z"/>
</svg>
