<?xml version="1.0" encoding="utf-8"?>
<!-- Generator: Adobe Illustrator 22.0.0, SVG Export Plug-In . SVG Version: 6.00 Build 0)  -->
<svg version="1.1" id="Layer_1" xmlns="http://www.w3.org/2000/svg" xmlns:xlink="http://www.w3.org/1999/xlink" x="0px" y="0px"
	 viewBox="0 0 25 25" style="enable-background:new 0 0 25 25;" xml:space="preserve">
<style type="text/css">
	.st0{fill:url(#SVGID_1_);}
	.st1{fill:url(#SVGID_2_);}
	.st2{fill:url(#SVGID_3_);}
	.st3{fill:url(#SVGID_4_);}
	.st4{fill:url(#SVGID_5_);}
	.st5{fill:url(#SVGID_6_);}
	.st6{fill:url(#SVGID_7_);}
	.st7{fill:url(#SVGID_8_);}
	.st8{fill:url(#SVGID_9_);}
	.st9{fill:url(#SVGID_10_);}
	.st10{fill:none;}
	.st11{fill:url(#SVGID_12_);stroke:#666666;stroke-width:8.992178e-03;stroke-miterlimit:10;}
	.st12{fill:url(#SVGID_13_);stroke:#666666;stroke-width:8.992178e-03;stroke-miterlimit:10;}
	.st13{fill:url(#SVGID_14_);stroke:#666666;stroke-width:8.992178e-03;stroke-miterlimit:10;}
	.st14{fill:url(#SVGID_15_);stroke:#666666;stroke-width:8.992178e-03;stroke-miterlimit:10;}
	.st15{fill:url(#SVGID_16_);stroke:#666666;stroke-width:8.992178e-03;stroke-miterlimit:10;}
	.st16{fill:url(#SVGID_17_);stroke:#666666;stroke-width:8.992178e-03;stroke-miterlimit:10;}
	.st17{fill:url(#SVGID_18_);stroke:#666666;stroke-width:8.992178e-03;stroke-miterlimit:10;}
	.st18{fill:url(#SVGID_19_);stroke:#666666;stroke-width:8.992178e-03;stroke-miterlimit:10;}
	.st19{fill:url(#SVGID_20_);stroke:#666666;stroke-width:8.992178e-03;stroke-miterlimit:10;}
	.st20{fill:url(#SVGID_21_);stroke:#666666;stroke-width:8.992178e-03;stroke-miterlimit:10;}
	.st21{fill:url(#SVGID_22_);stroke:#666666;stroke-width:8.992178e-03;stroke-miterlimit:10;}
	.st22{fill:url(#SVGID_23_);stroke:#666666;stroke-width:8.992178e-03;stroke-miterlimit:10;}
	.st23{fill:url(#SVGID_24_);}
	.st24{fill:url(#SVGID_25_);}
	.st25{fill:url(#SVGID_26_);}
	.st26{fill:url(#SVGID_27_);}
	.st27{fill:url(#SVGID_28_);}
	.st28{fill:url(#SVGID_29_);}
	.st29{fill:url(#SVGID_30_);}
	.st30{fill:url(#SVGID_31_);}
	.st31{fill:url(#SVGID_32_);}
	.st32{fill:url(#SVGID_33_);}
	.st33{fill:url(#SVGID_34_);}
	.st34{fill:url(#SVGID_35_);}
	.st35{fill:url(#SVGID_36_);}
	.st36{fill:url(#SVGID_37_);}
	.st37{fill:url(#SVGID_38_);}
	.st38{fill:url(#SVGID_39_);}
	.st39{fill:url(#SVGID_40_);}
	.st40{fill:url(#SVGID_41_);}
	.st41{fill:url(#SVGID_42_);}
	.st42{fill:url(#SVGID_43_);}
	.st43{fill:url(#SVGID_44_);}
	.st44{fill:url(#SVGID_45_);}
	.st45{fill:url(#SVGID_46_);}
	.st46{fill:url(#SVGID_47_);}
	.st47{fill:url(#SVGID_48_);}
	.st48{fill:url(#SVGID_49_);}
	.st49{fill:url(#SVGID_50_);}
	.st50{fill:url(#SVGID_51_);}
	.st51{fill:url(#SVGID_52_);}
	.st52{fill:url(#SVGID_53_);}
	.st53{fill:url(#SVGID_54_);}
	.st54{fill:url(#SVGID_55_);}
	.st55{fill:url(#SVGID_56_);}
	.st56{fill:url(#SVGID_57_);}
	.st57{fill:url(#SVGID_58_);}
	.st58{fill:url(#SVGID_59_);}
	.st59{fill:url(#SVGID_60_);}
	.st60{fill:url(#SVGID_61_);}
	.st61{fill:url(#SVGID_62_);}
	.st62{fill:url(#SVGID_63_);}
	.st63{fill:url(#SVGID_64_);}
	.st64{fill:url(#SVGID_65_);}
	.st65{fill:url(#SVGID_66_);}
	.st66{fill:url(#SVGID_67_);}
	.st67{fill:url(#SVGID_68_);}
	.st68{fill:url(#SVGID_69_);}
	.st69{fill:url(#SVGID_70_);}
	.st70{fill:url(#SVGID_71_);}
	.st71{fill:url(#SVGID_72_);}
	.st72{fill:url(#SVGID_73_);}
	.st73{fill:url(#SVGID_74_);}
	.st74{fill:url(#SVGID_75_);}
	.st75{fill:url(#SVGID_76_);}
	.st76{fill:url(#SVGID_77_);}
	.st77{fill:url(#SVGID_78_);}
	.st78{fill:url(#SVGID_79_);}
	.st79{fill:url(#SVGID_80_);}
	.st80{fill:url(#SVGID_81_);}
	.st81{fill:url(#SVGID_82_);}
	.st82{fill:url(#SVGID_83_);}
	.st83{fill:url(#SVGID_84_);}
</style>
<linearGradient id="SVGID_1_" gradientUnits="userSpaceOnUse" x1="12.5" y1="26" x2="12.5" y2="1" gradientTransform="matrix(1 0 0 -1 0 26)">
	<stop  offset="0" style="stop-color:#FFFFFF"/>
	<stop  offset="1" style="stop-color:#AAAAAA"/>
</linearGradient>
<rect class="st0" width="25" height="25"/>
<g>
	<linearGradient id="SVGID_2_" gradientUnits="userSpaceOnUse" x1="22.7401" y1="1.3754" x2="22.7401" y2="5.7582">
		<stop  offset="0" style="stop-color:#CBCBCB"/>
		<stop  offset="1" style="stop-color:#8F8F8F"/>
	</linearGradient>
	<path class="st1" d="M21.7,5.8c0.6-0.6,1.3-1.1,2.1-1.5 M23.8,4.2V1.4l-0.9,0.3c0,0.7-1.2,4.1-1.2,4.1"/>
	<linearGradient id="SVGID_3_" gradientUnits="userSpaceOnUse" x1="33.5139" y1="1.3755" x2="33.5139" y2="5.7582">
		<stop  offset="0" style="stop-color:#CBCBCB"/>
		<stop  offset="1" style="stop-color:#8F8F8F"/>
	</linearGradient>
	<path class="st2" d="M32.5,4.2c0.8,0.4,1.5,0.9,2.1,1.5 M34.6,5.8c0,0-1.2-3.4-1.2-4.1l-0.9-0.3v2.9"/>
	<linearGradient id="SVGID_4_" gradientUnits="userSpaceOnUse" x1="28.127" y1="35.52" x2="28.127" y2="21.8519">
		<stop  offset="0.2619" style="stop-color:#04040B"/>
		<stop  offset="0.6888" style="stop-color:#04040B"/>
		<stop  offset="1" style="stop-color:#545358"/>
	</linearGradient>
	<rect x="23.8" y="21.9" class="st3" width="8.6" height="13.7"/>
	<linearGradient id="SVGID_5_" gradientUnits="userSpaceOnUse" x1="23.8108" y1="28.6859" x2="32.4433" y2="28.6859">
		<stop  offset="0" style="stop-color:#04040B;stop-opacity:0"/>
		<stop  offset="0.5198" style="stop-color:#545358;stop-opacity:0.5"/>
	</linearGradient>
	<rect x="23.8" y="21.9" class="st4" width="8.6" height="13.7"/>
	<linearGradient id="SVGID_6_" gradientUnits="userSpaceOnUse" x1="28.127" y1="-10.52" x2="28.127" y2="3.1481">
		<stop  offset="0.2619" style="stop-color:#04040B"/>
		<stop  offset="0.6888" style="stop-color:#04040B"/>
		<stop  offset="1" style="stop-color:#545358"/>
	</linearGradient>
	<rect x="23.8" y="-10.5" class="st5" width="8.6" height="13.7"/>
	<linearGradient id="SVGID_7_" gradientUnits="userSpaceOnUse" x1="23.8108" y1="-3.6859" x2="32.4433" y2="-3.6859">
		<stop  offset="0" style="stop-color:#04040B;stop-opacity:0"/>
		<stop  offset="0.5198" style="stop-color:#545358;stop-opacity:0.5"/>
	</linearGradient>
	<rect x="23.8" y="-10.5" class="st6" width="8.6" height="13.7"/>
	<linearGradient id="SVGID_8_" gradientUnits="userSpaceOnUse" x1="18.7751" y1="12.5" x2="37.4789" y2="12.5">
		<stop  offset="0" style="stop-color:#CBCBCB"/>
		<stop  offset="1" style="stop-color:#8F8F8F"/>
	</linearGradient>
	<circle class="st7" cx="28.1" cy="12.5" r="9.4"/>
	<linearGradient id="SVGID_9_" gradientUnits="userSpaceOnUse" x1="19.4945" y1="12.5" x2="36.7595" y2="12.5">
		<stop  offset="0" style="stop-color:#8F8F8F"/>
		<stop  offset="1" style="stop-color:#CBCBCB"/>
	</linearGradient>
	<circle class="st8" cx="28.1" cy="12.5" r="8.6"/>
	<radialGradient id="SVGID_10_" cx="28.127" cy="12.5" r="8.2728" gradientUnits="userSpaceOnUse">
		<stop  offset="0.7646" style="stop-color:#E4DBD1"/>
		<stop  offset="0.8816" style="stop-color:#E2D9CF"/>
		<stop  offset="0.9238" style="stop-color:#DBD3CA"/>
		<stop  offset="0.9538" style="stop-color:#D0C8C0"/>
		<stop  offset="0.978" style="stop-color:#BFB8B2"/>
		<stop  offset="0.9987" style="stop-color:#A9A4A0"/>
	</radialGradient>
	<circle class="st9" cx="28.1" cy="12.5" r="8.3"/>
	<path id="SVGID_x5F_11_x5F_" class="st10" d="M20.2,13.7c-0.6-4.4,2.4-8.4,6.7-9.1S35.4,7,36,11.3s-2.4,8.4-6.7,9.1
		S20.9,18,20.2,13.7z"/>
	<text>	<textPath  xlink:href="#SVGID_x5F_11_x5F_" startOffset="36.5887%">
<tspan  style="font-family:'ArialMT'; font-size:0.2698px;">SWISS                       MADE</tspan>	</textPath>
</text>
	<linearGradient id="SVGID_12_" gradientUnits="userSpaceOnUse" x1="28.1324" y1="6.7426" x2="28.1324" y2="4.5846">
		<stop  offset="0" style="stop-color:#D1D0CE"/>
		<stop  offset="1" style="stop-color:#E0DFDB"/>
	</linearGradient>
	<polygon class="st11" points="28.3,6.7 28,6.7 27.8,4.6 28.4,4.6 	"/>
	<linearGradient id="SVGID_13_" gradientUnits="userSpaceOnUse" x1="25.2609" y1="7.5066" x2="24.1819" y2="5.6378">
		<stop  offset="0" style="stop-color:#D1D0CE"/>
		<stop  offset="1" style="stop-color:#E0DFDB"/>
	</linearGradient>
	<polygon class="st12" points="25.4,7.4 25.1,7.6 23.9,5.8 24.4,5.5 	"/>
	<linearGradient id="SVGID_14_" gradientUnits="userSpaceOnUse" x1="23.1482" y1="9.6087" x2="21.2794" y2="8.5297">
		<stop  offset="0" style="stop-color:#D1D0CE"/>
		<stop  offset="1" style="stop-color:#E0DFDB"/>
	</linearGradient>
	<polygon class="st13" points="23.2,9.5 23.1,9.8 21.1,8.8 21.4,8.3 	"/>
	<linearGradient id="SVGID_15_" gradientUnits="userSpaceOnUse" x1="22.3696" y1="12.4854" x2="20.2116" y2="12.4854">
		<stop  offset="0" style="stop-color:#D1D0CE"/>
		<stop  offset="1" style="stop-color:#E0DFDB"/>
	</linearGradient>
	<polygon class="st14" points="22.4,12.3 22.4,12.6 20.2,12.8 20.2,12.2 	"/>
	<linearGradient id="SVGID_16_" gradientUnits="userSpaceOnUse" x1="23.2155" y1="15.9621" x2="21.1172" y2="15.9621">
		<stop  offset="0" style="stop-color:#D1D0CE"/>
		<stop  offset="1" style="stop-color:#E0DFDB"/>
	</linearGradient>
	<polygon class="st15" points="23.1,15.2 23.2,15.5 21.4,16.7 21.1,16.2 	"/>
	<linearGradient id="SVGID_17_" gradientUnits="userSpaceOnUse" x1="25.6045" y1="17.9541" x2="23.7874" y2="19.0032">
		<stop  offset="0" style="stop-color:#D1D0CE"/>
		<stop  offset="1" style="stop-color:#E0DFDB"/>
	</linearGradient>
	<polygon class="st16" points="25.1,17.4 25.4,17.6 24.4,19.5 23.9,19.2 	"/>
	<linearGradient id="SVGID_18_" gradientUnits="userSpaceOnUse" x1="28.1404" y1="20.4433" x2="28.1404" y2="18.2853">
		<stop  offset="0" style="stop-color:#D1D0CE"/>
		<stop  offset="1" style="stop-color:#E0DFDB"/>
	</linearGradient>
	<polygon class="st17" points="28,18.3 28.3,18.3 28.4,20.4 27.8,20.4 	"/>
	<linearGradient id="SVGID_19_" gradientUnits="userSpaceOnUse" x1="31.1633" y1="19.1327" x2="31.9015" y2="17.8542">
		<stop  offset="0" style="stop-color:#D1D0CE"/>
		<stop  offset="1" style="stop-color:#E0DFDB"/>
	</linearGradient>
	<polygon class="st18" points="30.9,17.6 31.1,17.4 32.3,19.2 31.8,19.5 	"/>
	<linearGradient id="SVGID_20_" gradientUnits="userSpaceOnUse" x1="33.466" y1="16.3004" x2="34.7453" y2="15.5617">
		<stop  offset="0" style="stop-color:#D1D0CE"/>
		<stop  offset="1" style="stop-color:#E0DFDB"/>
	</linearGradient>
	<polygon class="st19" points="33,15.5 33.2,15.2 35.1,16.2 34.8,16.7 	"/>
	<linearGradient id="SVGID_21_" gradientUnits="userSpaceOnUse" x1="35.4795" y1="12.5145" x2="36.0424" y2="12.5145">
		<stop  offset="0" style="stop-color:#D1D0CE"/>
		<stop  offset="1" style="stop-color:#E0DFDB"/>
	</linearGradient>
	<polygon class="st20" points="35.5,12.7 35.5,12.4 36,12.2 36,12.8 	"/>
	<linearGradient id="SVGID_22_" gradientUnits="userSpaceOnUse" x1="33.4812" y1="8.7255" x2="34.7597" y2="9.4637">
		<stop  offset="0" style="stop-color:#D1D0CE"/>
		<stop  offset="1" style="stop-color:#E0DFDB"/>
	</linearGradient>
	<polygon class="st21" points="33.2,9.8 33,9.5 34.8,8.3 35.1,8.8 	"/>
	<linearGradient id="SVGID_23_" gradientUnits="userSpaceOnUse" x1="31.1887" y1="5.8817" x2="31.9274" y2="7.161">
		<stop  offset="0" style="stop-color:#D1D0CE"/>
		<stop  offset="1" style="stop-color:#E0DFDB"/>
	</linearGradient>
	<polygon class="st22" points="31.2,7.6 30.9,7.4 31.8,5.5 32.4,5.8 	"/>
	<g id="Seconds">
		<radialGradient id="SVGID_24_" cx="27.309" cy="4.7174" r="8.992906e-02" gradientUnits="userSpaceOnUse">
			<stop  offset="0" style="stop-color:#C1B7AD"/>
			<stop  offset="1" style="stop-color:#A09992"/>
		</radialGradient>
		<circle class="st23" cx="27.3" cy="4.7" r="0.1"/>
		<radialGradient id="SVGID_25_" cx="26.5" cy="4.8455" r="8.994024e-02" gradientUnits="userSpaceOnUse">
			<stop  offset="0" style="stop-color:#C1B7AD"/>
			<stop  offset="1" style="stop-color:#A09992"/>
		</radialGradient>
		<circle class="st24" cx="26.5" cy="4.8" r="0.1"/>
		<radialGradient id="SVGID_26_" cx="25.7088" cy="5.0575" r="8.994606e-02" gradientUnits="userSpaceOnUse">
			<stop  offset="0" style="stop-color:#C1B7AD"/>
			<stop  offset="1" style="stop-color:#A09992"/>
		</radialGradient>
		<circle class="st25" cx="25.7" cy="5.1" r="0.1"/>
		<radialGradient id="SVGID_27_" cx="24.9441" cy="5.3511" r="8.994419e-02" gradientUnits="userSpaceOnUse">
			<stop  offset="0" style="stop-color:#C1B7AD"/>
			<stop  offset="1" style="stop-color:#A09992"/>
		</radialGradient>
		<circle class="st26" cx="24.9" cy="5.4" r="0.1"/>
		<radialGradient id="SVGID_28_" cx="23.5273" cy="6.1691" r="8.992817e-02" gradientUnits="userSpaceOnUse">
			<stop  offset="0" style="stop-color:#C1B7AD"/>
			<stop  offset="1" style="stop-color:#A09992"/>
		</radialGradient>
		<circle class="st27" cx="23.5" cy="6.2" r="0.1"/>
		<radialGradient id="SVGID_29_" cx="22.8907" cy="6.6845" r="8.992255e-02" gradientUnits="userSpaceOnUse">
			<stop  offset="0" style="stop-color:#C1B7AD"/>
			<stop  offset="1" style="stop-color:#A09992"/>
		</radialGradient>
		<circle class="st28" cx="22.9" cy="6.7" r="0.1"/>
		<radialGradient id="SVGID_30_" cx="22.3115" cy="7.2637" r="8.992255e-02" gradientUnits="userSpaceOnUse">
			<stop  offset="0" style="stop-color:#C1B7AD"/>
			<stop  offset="1" style="stop-color:#A09992"/>
		</radialGradient>
		<circle class="st29" cx="22.3" cy="7.3" r="0.1"/>
		<radialGradient id="SVGID_31_" cx="21.7961" cy="7.9003" r="8.992817e-02" gradientUnits="userSpaceOnUse">
			<stop  offset="0" style="stop-color:#C1B7AD"/>
			<stop  offset="1" style="stop-color:#A09992"/>
		</radialGradient>
		<circle class="st30" cx="21.8" cy="7.9" r="0.1"/>
		<radialGradient id="SVGID_32_" cx="20.9781" cy="9.3171" r="8.994419e-02" gradientUnits="userSpaceOnUse">
			<stop  offset="0" style="stop-color:#C1B7AD"/>
			<stop  offset="1" style="stop-color:#A09992"/>
		</radialGradient>
		<circle class="st31" cx="21" cy="9.3" r="0.1"/>
		<radialGradient id="SVGID_33_" cx="20.6845" cy="10.0818" r="8.994606e-02" gradientUnits="userSpaceOnUse">
			<stop  offset="0" style="stop-color:#C1B7AD"/>
			<stop  offset="1" style="stop-color:#A09992"/>
		</radialGradient>
		<circle class="st32" cx="20.7" cy="10.1" r="0.1"/>
		<radialGradient id="SVGID_34_" cx="20.4725" cy="10.873" r="8.994024e-02" gradientUnits="userSpaceOnUse">
			<stop  offset="0" style="stop-color:#C1B7AD"/>
			<stop  offset="1" style="stop-color:#A09992"/>
		</radialGradient>
		<circle class="st33" cx="20.5" cy="10.9" r="0.1"/>
		<radialGradient id="SVGID_35_" cx="20.3444" cy="11.682" r="8.992906e-02" gradientUnits="userSpaceOnUse">
			<stop  offset="0" style="stop-color:#C1B7AD"/>
			<stop  offset="1" style="stop-color:#A09992"/>
		</radialGradient>
		<circle class="st34" cx="20.3" cy="11.7" r="0.1"/>
		<radialGradient id="SVGID_36_" cx="20.3444" cy="13.318" r="8.992906e-02" gradientUnits="userSpaceOnUse">
			<stop  offset="0" style="stop-color:#C1B7AD"/>
			<stop  offset="1" style="stop-color:#A09992"/>
		</radialGradient>
		<circle class="st35" cx="20.3" cy="13.3" r="0.1"/>
		<radialGradient id="SVGID_37_" cx="20.4725" cy="14.127" r="8.994024e-02" gradientUnits="userSpaceOnUse">
			<stop  offset="0" style="stop-color:#C1B7AD"/>
			<stop  offset="1" style="stop-color:#A09992"/>
		</radialGradient>
		<circle class="st36" cx="20.5" cy="14.1" r="0.1"/>
		<radialGradient id="SVGID_38_" cx="20.6845" cy="14.9182" r="8.994606e-02" gradientUnits="userSpaceOnUse">
			<stop  offset="0" style="stop-color:#C1B7AD"/>
			<stop  offset="1" style="stop-color:#A09992"/>
		</radialGradient>
		<circle class="st37" cx="20.7" cy="14.9" r="0.1"/>
		<radialGradient id="SVGID_39_" cx="20.9781" cy="15.6829" r="8.994419e-02" gradientUnits="userSpaceOnUse">
			<stop  offset="0" style="stop-color:#C1B7AD"/>
			<stop  offset="1" style="stop-color:#A09992"/>
		</radialGradient>
		<circle class="st38" cx="21" cy="15.7" r="0.1"/>
		<radialGradient id="SVGID_40_" cx="21.7961" cy="17.0997" r="8.992817e-02" gradientUnits="userSpaceOnUse">
			<stop  offset="0" style="stop-color:#C1B7AD"/>
			<stop  offset="1" style="stop-color:#A09992"/>
		</radialGradient>
		<circle class="st39" cx="21.8" cy="17.1" r="0.1"/>
		<radialGradient id="SVGID_41_" cx="22.3115" cy="17.7363" r="8.992255e-02" gradientUnits="userSpaceOnUse">
			<stop  offset="0" style="stop-color:#C1B7AD"/>
			<stop  offset="1" style="stop-color:#A09992"/>
		</radialGradient>
		<circle class="st40" cx="22.3" cy="17.7" r="0.1"/>
		<radialGradient id="SVGID_42_" cx="22.8907" cy="18.3155" r="8.992255e-02" gradientUnits="userSpaceOnUse">
			<stop  offset="0" style="stop-color:#C1B7AD"/>
			<stop  offset="1" style="stop-color:#A09992"/>
		</radialGradient>
		<circle class="st41" cx="22.9" cy="18.3" r="0.1"/>
		<radialGradient id="SVGID_43_" cx="23.5273" cy="18.8309" r="8.992817e-02" gradientUnits="userSpaceOnUse">
			<stop  offset="0" style="stop-color:#C1B7AD"/>
			<stop  offset="1" style="stop-color:#A09992"/>
		</radialGradient>
		<circle class="st42" cx="23.5" cy="18.8" r="0.1"/>
		<radialGradient id="SVGID_44_" cx="24.9441" cy="19.6489" r="8.994419e-02" gradientUnits="userSpaceOnUse">
			<stop  offset="0" style="stop-color:#C1B7AD"/>
			<stop  offset="1" style="stop-color:#A09992"/>
		</radialGradient>
		<circle class="st43" cx="24.9" cy="19.6" r="0.1"/>
		<radialGradient id="SVGID_45_" cx="25.7088" cy="19.9425" r="8.994606e-02" gradientUnits="userSpaceOnUse">
			<stop  offset="0" style="stop-color:#C1B7AD"/>
			<stop  offset="1" style="stop-color:#A09992"/>
		</radialGradient>
		<circle class="st44" cx="25.7" cy="19.9" r="0.1"/>
		<radialGradient id="SVGID_46_" cx="30.5452" cy="19.9425" r="8.994606e-02" gradientUnits="userSpaceOnUse">
			<stop  offset="0" style="stop-color:#C1B7AD"/>
			<stop  offset="1" style="stop-color:#A09992"/>
		</radialGradient>
		<circle class="st45" cx="30.5" cy="19.9" r="0.1"/>
		<radialGradient id="SVGID_47_" cx="31.3099" cy="19.6489" r="8.994419e-02" gradientUnits="userSpaceOnUse">
			<stop  offset="0" style="stop-color:#C1B7AD"/>
			<stop  offset="1" style="stop-color:#A09992"/>
		</radialGradient>
		<circle class="st46" cx="31.3" cy="19.6" r="0.1"/>
		<radialGradient id="SVGID_48_" cx="32.7267" cy="18.8309" r="8.992817e-02" gradientUnits="userSpaceOnUse">
			<stop  offset="0" style="stop-color:#C1B7AD"/>
			<stop  offset="1" style="stop-color:#A09992"/>
		</radialGradient>
		<circle class="st47" cx="32.7" cy="18.8" r="0.1"/>
		<radialGradient id="SVGID_49_" cx="33.3633" cy="18.3155" r="8.992255e-02" gradientUnits="userSpaceOnUse">
			<stop  offset="0" style="stop-color:#C1B7AD"/>
			<stop  offset="1" style="stop-color:#A09992"/>
		</radialGradient>
		<circle class="st48" cx="33.4" cy="18.3" r="0.1"/>
		<radialGradient id="SVGID_50_" cx="33.9425" cy="17.7363" r="8.992255e-02" gradientUnits="userSpaceOnUse">
			<stop  offset="0" style="stop-color:#C1B7AD"/>
			<stop  offset="1" style="stop-color:#A09992"/>
		</radialGradient>
		<circle class="st49" cx="33.9" cy="17.7" r="0.1"/>
		<radialGradient id="SVGID_51_" cx="34.4579" cy="17.0997" r="8.992817e-02" gradientUnits="userSpaceOnUse">
			<stop  offset="0" style="stop-color:#C1B7AD"/>
			<stop  offset="1" style="stop-color:#A09992"/>
		</radialGradient>
		<circle class="st50" cx="34.5" cy="17.1" r="0.1"/>
		<radialGradient id="SVGID_52_" cx="35.2759" cy="15.6829" r="8.994419e-02" gradientUnits="userSpaceOnUse">
			<stop  offset="0" style="stop-color:#C1B7AD"/>
			<stop  offset="1" style="stop-color:#A09992"/>
		</radialGradient>
		<circle class="st51" cx="35.3" cy="15.7" r="0.1"/>
		<radialGradient id="SVGID_53_" cx="35.5695" cy="14.9182" r="8.994606e-02" gradientUnits="userSpaceOnUse">
			<stop  offset="0" style="stop-color:#C1B7AD"/>
			<stop  offset="1" style="stop-color:#A09992"/>
		</radialGradient>
		<circle class="st52" cx="35.6" cy="14.9" r="0.1"/>
		<radialGradient id="SVGID_54_" cx="35.7815" cy="14.127" r="8.994024e-02" gradientUnits="userSpaceOnUse">
			<stop  offset="0" style="stop-color:#C1B7AD"/>
			<stop  offset="1" style="stop-color:#A09992"/>
		</radialGradient>
		<circle class="st53" cx="35.8" cy="14.1" r="0.1"/>
		<radialGradient id="SVGID_55_" cx="35.9096" cy="13.318" r="8.992906e-02" gradientUnits="userSpaceOnUse">
			<stop  offset="0" style="stop-color:#C1B7AD"/>
			<stop  offset="1" style="stop-color:#A09992"/>
		</radialGradient>
		<circle class="st54" cx="35.9" cy="13.3" r="0.1"/>
		<radialGradient id="SVGID_56_" cx="35.9096" cy="11.682" r="8.992906e-02" gradientUnits="userSpaceOnUse">
			<stop  offset="0" style="stop-color:#C1B7AD"/>
			<stop  offset="1" style="stop-color:#A09992"/>
		</radialGradient>
		<circle class="st55" cx="35.9" cy="11.7" r="0.1"/>
		<radialGradient id="SVGID_57_" cx="35.7815" cy="10.873" r="8.994024e-02" gradientUnits="userSpaceOnUse">
			<stop  offset="0" style="stop-color:#C1B7AD"/>
			<stop  offset="1" style="stop-color:#A09992"/>
		</radialGradient>
		<circle class="st56" cx="35.8" cy="10.9" r="0.1"/>
		<radialGradient id="SVGID_58_" cx="35.5695" cy="10.0818" r="8.994606e-02" gradientUnits="userSpaceOnUse">
			<stop  offset="0" style="stop-color:#C1B7AD"/>
			<stop  offset="1" style="stop-color:#A09992"/>
		</radialGradient>
		<circle class="st57" cx="35.6" cy="10.1" r="0.1"/>
		<radialGradient id="SVGID_59_" cx="35.2759" cy="9.3171" r="8.994419e-02" gradientUnits="userSpaceOnUse">
			<stop  offset="0" style="stop-color:#C1B7AD"/>
			<stop  offset="1" style="stop-color:#A09992"/>
		</radialGradient>
		<circle class="st58" cx="35.3" cy="9.3" r="0.1"/>
		<radialGradient id="SVGID_60_" cx="34.4579" cy="7.9003" r="8.992817e-02" gradientUnits="userSpaceOnUse">
			<stop  offset="0" style="stop-color:#C1B7AD"/>
			<stop  offset="1" style="stop-color:#A09992"/>
		</radialGradient>
		<circle class="st59" cx="34.5" cy="7.9" r="0.1"/>
		<radialGradient id="SVGID_61_" cx="33.9425" cy="7.2637" r="8.992255e-02" gradientUnits="userSpaceOnUse">
			<stop  offset="0" style="stop-color:#C1B7AD"/>
			<stop  offset="1" style="stop-color:#A09992"/>
		</radialGradient>
		<circle class="st60" cx="33.9" cy="7.3" r="0.1"/>
		<radialGradient id="SVGID_62_" cx="33.3633" cy="6.6845" r="8.992255e-02" gradientUnits="userSpaceOnUse">
			<stop  offset="0" style="stop-color:#C1B7AD"/>
			<stop  offset="1" style="stop-color:#A09992"/>
		</radialGradient>
		<circle class="st61" cx="33.4" cy="6.7" r="0.1"/>
		<radialGradient id="SVGID_63_" cx="32.7267" cy="6.1691" r="8.992817e-02" gradientUnits="userSpaceOnUse">
			<stop  offset="0" style="stop-color:#C1B7AD"/>
			<stop  offset="1" style="stop-color:#A09992"/>
		</radialGradient>
		<circle class="st62" cx="32.7" cy="6.2" r="0.1"/>
		<radialGradient id="SVGID_64_" cx="31.3099" cy="5.3511" r="8.994419e-02" gradientUnits="userSpaceOnUse">
			<stop  offset="0" style="stop-color:#C1B7AD"/>
			<stop  offset="1" style="stop-color:#A09992"/>
		</radialGradient>
		<circle class="st63" cx="31.3" cy="5.4" r="0.1"/>
		<radialGradient id="SVGID_65_" cx="30.5452" cy="5.0575" r="8.994606e-02" gradientUnits="userSpaceOnUse">
			<stop  offset="0" style="stop-color:#C1B7AD"/>
			<stop  offset="1" style="stop-color:#A09992"/>
		</radialGradient>
		<circle class="st64" cx="30.5" cy="5.1" r="0.1"/>
		<radialGradient id="SVGID_66_" cx="29.754" cy="4.8455" r="8.994024e-02" gradientUnits="userSpaceOnUse">
			<stop  offset="0" style="stop-color:#C1B7AD"/>
			<stop  offset="1" style="stop-color:#A09992"/>
		</radialGradient>
		<circle class="st65" cx="29.8" cy="4.8" r="0.1"/>
		<radialGradient id="SVGID_67_" cx="28.945" cy="4.7174" r="8.992906e-02" gradientUnits="userSpaceOnUse">
			<stop  offset="0" style="stop-color:#C1B7AD"/>
			<stop  offset="1" style="stop-color:#A09992"/>
		</radialGradient>
		<circle class="st66" cx="28.9" cy="4.7" r="0.1"/>
	</g>
	<linearGradient id="SVGID_68_" gradientUnits="userSpaceOnUse" x1="22.7401" y1="23.6415" x2="22.7401" y2="19.2588">
		<stop  offset="0" style="stop-color:#CBCBCB"/>
		<stop  offset="1" style="stop-color:#8F8F8F"/>
	</linearGradient>
	<path class="st67" d="M23.8,20.8c-0.8-0.4-1.5-0.9-2.1-1.5 M21.7,19.3c0,0,1.2,3.4,1.2,4.1l0.9,0.3v-2.9"/>
	<linearGradient id="SVGID_69_" gradientUnits="userSpaceOnUse" x1="33.5139" y1="23.656" x2="33.5139" y2="19.2733">
		<stop  offset="0" style="stop-color:#CBCBCB"/>
		<stop  offset="1" style="stop-color:#8F8F8F"/>
	</linearGradient>
	<path class="st68" d="M34.6,19.3c-0.6,0.6-1.3,1.1-2.1,1.5 M32.4,20.8v2.9l0.9-0.3c0-0.7,1.2-4.1,1.2-4.1"/>
	<g>
		<linearGradient id="SVGID_70_" gradientUnits="userSpaceOnUse" x1="38.1982" y1="13.2339" x2="38.1982" y2="11.7952">
			<stop  offset="0" style="stop-color:#7B7D7A"/>
			<stop  offset="1" style="stop-color:#D0D1CB"/>
		</linearGradient>
		<path class="st69" d="M38.2,13.2h-0.5c-0.1,0-0.2-0.1-0.2-0.2V12c0-0.1,0.1-0.2,0.2-0.2h0.5c0.4,0,0.7,0.3,0.7,0.7v0
			C38.9,12.9,38.6,13.2,38.2,13.2z"/>
	</g>
	<linearGradient id="SVGID_71_" gradientUnits="userSpaceOnUse" x1="38.1994" y1="12.0297" x2="38.1994" y2="11.8681">
		<stop  offset="0" style="stop-color:#7B7D7A"/>
		<stop  offset="1" style="stop-color:#D0D1CB"/>
	</linearGradient>
	<path class="st70" d="M37.6,11.9h1.1l0.1,0.1L38.8,12h-1.1l-0.1-0.1L37.6,11.9z"/>
	<linearGradient id="SVGID_72_" gradientUnits="userSpaceOnUse" x1="38.1994" y1="12.1913" x2="38.1994" y2="12.0297">
		<stop  offset="0" style="stop-color:#7B7D7A"/>
		<stop  offset="1" style="stop-color:#D0D1CB"/>
	</linearGradient>
	<path class="st71" d="M37.6,12h1.1l0.1,0.1l-0.1,0.1h-1.1l-0.1-0.1L37.6,12z"/>
	<linearGradient id="SVGID_73_" gradientUnits="userSpaceOnUse" x1="38.1994" y1="12.3529" x2="38.1994" y2="12.1913">
		<stop  offset="0" style="stop-color:#7B7D7A"/>
		<stop  offset="1" style="stop-color:#D0D1CB"/>
	</linearGradient>
	<path class="st72" d="M37.6,12.2h1.1l0.1,0.1l-0.1,0.1h-1.1l-0.1-0.1L37.6,12.2z"/>
	<linearGradient id="SVGID_74_" gradientUnits="userSpaceOnUse" x1="38.1994" y1="12.5146" x2="38.1994" y2="12.3529">
		<stop  offset="0" style="stop-color:#7B7D7A"/>
		<stop  offset="1" style="stop-color:#D0D1CB"/>
	</linearGradient>
	<path class="st73" d="M37.6,12.4h1.1l0.1,0.1l-0.1,0.1h-1.1l-0.1-0.1L37.6,12.4z"/>
	<linearGradient id="SVGID_75_" gradientUnits="userSpaceOnUse" x1="38.1994" y1="12.6762" x2="38.1994" y2="12.5146">
		<stop  offset="0" style="stop-color:#7B7D7A"/>
		<stop  offset="1" style="stop-color:#D0D1CB"/>
	</linearGradient>
	<path class="st74" d="M37.6,12.5h1.1l0.1,0.1l-0.1,0.1h-1.1l-0.1-0.1L37.6,12.5z"/>
	<linearGradient id="SVGID_76_" gradientUnits="userSpaceOnUse" x1="38.1994" y1="12.8378" x2="38.1994" y2="12.6762">
		<stop  offset="0" style="stop-color:#7B7D7A"/>
		<stop  offset="1" style="stop-color:#D0D1CB"/>
	</linearGradient>
	<path class="st75" d="M37.6,12.7h1.1l0.1,0.1l-0.1,0.1h-1.1l-0.1-0.1L37.6,12.7z"/>
	<linearGradient id="SVGID_77_" gradientUnits="userSpaceOnUse" x1="38.1994" y1="12.9994" x2="38.1994" y2="12.8378">
		<stop  offset="0" style="stop-color:#7B7D7A"/>
		<stop  offset="1" style="stop-color:#D0D1CB"/>
	</linearGradient>
	<path class="st76" d="M37.6,12.8h1.1l0.1,0.1L38.8,13h-1.1l-0.1-0.1L37.6,12.8z"/>
	<linearGradient id="SVGID_78_" gradientUnits="userSpaceOnUse" x1="38.1994" y1="13.161" x2="38.1994" y2="12.9994">
		<stop  offset="0" style="stop-color:#7B7D7A"/>
		<stop  offset="1" style="stop-color:#D0D1CB"/>
	</linearGradient>
	<path class="st77" d="M37.6,13h1.1l0.1,0.1l-0.1,0.1h-1.1l-0.1-0.1L37.6,13z"/>
	<linearGradient id="SVGID_79_" gradientUnits="userSpaceOnUse" x1="30.728" y1="10.662" x2="30.39" y2="10.2592">
		<stop  offset="0.4079" style="stop-color:#7B7D7A"/>
		<stop  offset="0.4497" style="stop-color:#959793"/>
		<stop  offset="0.498" style="stop-color:#ABACA7"/>
		<stop  offset="0.5551" style="stop-color:#BCBDB7"/>
		<stop  offset="0.6258" style="stop-color:#C7C8C3"/>
		<stop  offset="0.7249" style="stop-color:#CECFC9"/>
		<stop  offset="1" style="stop-color:#D0D1CB"/>
	</linearGradient>
	<polygon class="st78" points="28.2,12.5 28.2,12.1 32.9,8.4 28.5,12.5 	"/>
	<linearGradient id="SVGID_80_" gradientUnits="userSpaceOnUse" x1="28.0044" y1="13.8893" x2="28.3145" y2="13.8893">
		<stop  offset="0.4987" style="stop-color:#7B7D7A"/>
		<stop  offset="0.534" style="stop-color:#959793"/>
		<stop  offset="0.575" style="stop-color:#ABACA7"/>
		<stop  offset="0.6233" style="stop-color:#BCBDB7"/>
		<stop  offset="0.6831" style="stop-color:#C7C8C3"/>
		<stop  offset="0.767" style="stop-color:#CECFC9"/>
		<stop  offset="1" style="stop-color:#D0D1CB"/>
	</linearGradient>
	<polygon class="st79" points="28.2,9.8 28.3,10.1 28.2,18 28,10.1 	"/>
	<linearGradient id="SVGID_81_" gradientUnits="userSpaceOnUse" x1="26.2847" y1="11.7621" x2="26.5476" y2="11.3068">
		<stop  offset="0.4079" style="stop-color:#7B7D7A"/>
		<stop  offset="0.4497" style="stop-color:#959793"/>
		<stop  offset="0.498" style="stop-color:#ABACA7"/>
		<stop  offset="0.5551" style="stop-color:#BCBDB7"/>
		<stop  offset="0.6258" style="stop-color:#C7C8C3"/>
		<stop  offset="0.7249" style="stop-color:#CECFC9"/>
		<stop  offset="1" style="stop-color:#D0D1CB"/>
	</linearGradient>
	<polygon class="st80" points="28,12.1 28.1,12.5 27.7,12.6 24.8,10.6 	"/>
	<linearGradient id="SVGID_82_" gradientUnits="userSpaceOnUse" x1="33.8595" y1="13.1324" x2="33.8595" y2="11.6936">
		<stop  offset="0" style="stop-color:#7B7D7A"/>
		<stop  offset="1" style="stop-color:#D0D1CB"/>
	</linearGradient>
	<rect x="33.1" y="11.7" class="st81" width="1.4" height="1.4"/>
	<linearGradient id="SVGID_83_" gradientUnits="userSpaceOnUse" x1="33.3199" y1="12.413" x2="34.399" y2="12.413">
		<stop  offset="0" style="stop-color:#D0D1CB"/>
		<stop  offset="1" style="stop-color:#E6E6E6"/>
	</linearGradient>
	<rect x="33.3" y="11.9" class="st82" width="1.1" height="1.1"/>
	<linearGradient id="SVGID_84_" gradientUnits="userSpaceOnUse" x1="27.7763" y1="12.5146" x2="28.5044" y2="12.5146">
		<stop  offset="0" style="stop-color:#AFB0AB"/>
		<stop  offset="1" style="stop-color:#A4A5A0"/>
	</linearGradient>
	<circle class="st83" cx="28.1" cy="12.5" r="0.4"/>
	<text transform="matrix(1 0 0 1 33.3201 12.7522)" style="font-family:'ArialMT'; font-size:0.8992px;">18</text>
	<text transform="matrix(1 0 0 1 25.9851 8.804)"><tspan x="0" y="0" style="font-family:'ArialMT'; font-size:0.5395px;">PATEK PHILIPPE</tspan><tspan x="1" y="0.6" style="font-family:'ArialMT'; font-size:0.5395px;">GENEVA</tspan></text>
</g>
</svg>
