<?xml version="1.0" encoding="utf-8"?>
<!-- Generator: Adobe Illustrator 22.0.1, SVG Export Plug-In . SVG Version: 6.00 Build 0)  -->
<svg version="1.1" id="Layer_1" xmlns="http://www.w3.org/2000/svg" xmlns:xlink="http://www.w3.org/1999/xlink" x="0px" y="0px"
	 viewBox="0 0 1166 703" style="enable-background:new 0 0 1166 703;" xml:space="preserve">
<style type="text/css">
	.st0{fill:#F5F5F5;}
	.st1{font-family:'OmnesMedium';}
	.st2{font-size:37.4411px;}
	.st3{fill:none;stroke:#000000;stroke-width:0.624;stroke-miterlimit:10;}
	.st4{font-size:22.4646px;}
</style>
<rect x="1" y="2" class="st0" width="1165" height="700"/>
<text transform="matrix(1 0 0 1 482.6781 83.9824)" class="st1 st2">Wireframes</text>
<rect x="126.2" y="141.2" class="st3" width="212.8" height="461.6"/>
<rect x="472.2" y="141.2" class="st3" width="212.8" height="461.6"/>
<rect x="818.2" y="141.2" class="st3" width="212.8" height="461.6"/>
<rect x="126.2" y="141.2" class="st3" width="212.8" height="97.3"/>
<line class="st3" x1="126.2" y1="238.5" x2="339" y2="141.2"/>
<line class="st3" x1="126.2" y1="141.2" x2="339" y2="238.5"/>
<rect x="472.2" y="141.2" class="st3" width="212.8" height="97.3"/>
<line class="st3" x1="472.2" y1="238.5" x2="685" y2="141.2"/>
<line class="st3" x1="472.2" y1="141.2" x2="685" y2="238.5"/>
<rect x="818.2" y="141.2" class="st3" width="212.8" height="97.3"/>
<line class="st3" x1="818.2" y1="238.5" x2="1031" y2="141.2"/>
<line class="st3" x1="818.2" y1="141.2" x2="1031" y2="238.5"/>
<rect x="126.2" y="315.9" class="st3" width="212.8" height="49.9"/>
<line class="st3" x1="126.2" y1="365.8" x2="339" y2="315.9"/>
<line class="st3" x1="126.2" y1="315.9" x2="339" y2="365.8"/>
<rect x="126.2" y="440.7" class="st3" width="212.8" height="49.9"/>
<line class="st3" x1="126.2" y1="490.6" x2="339" y2="440.7"/>
<line class="st3" x1="126.2" y1="440.7" x2="339" y2="490.6"/>
<rect x="135.4" y="251" class="st3" width="94.5" height="55.5"/>
<line class="st3" x1="135.4" y1="306.5" x2="229.9" y2="251"/>
<line class="st3" x1="135.4" y1="251" x2="229.9" y2="306.5"/>
<rect x="235.3" y="251" class="st3" width="94.5" height="55.5"/>
<line class="st3" x1="235.3" y1="306.5" x2="329.8" y2="251"/>
<line class="st3" x1="235.3" y1="251" x2="329.8" y2="306.5"/>
<rect x="483.6" y="251" class="st3" width="190" height="104.6"/>
<line class="st3" x1="483.6" y1="355.7" x2="673.6" y2="251"/>
<line class="st3" x1="483.6" y1="251" x2="673.6" y2="355.7"/>
<rect x="829.7" y="251" class="st3" width="89.7" height="172.2"/>
<line class="st3" x1="829.7" y1="423.2" x2="919.3" y2="251"/>
<line class="st3" x1="829.7" y1="251" x2="919.3" y2="423.2"/>
<rect x="829.7" y="432" class="st3" width="195" height="72.2"/>
<line class="st3" x1="829.7" y1="504.2" x2="1024.6" y2="432"/>
<line class="st3" x1="829.7" y1="432" x2="1024.6" y2="504.2"/>
<rect x="934.9" y="251" class="st3" width="89.7" height="83.4"/>
<line class="st3" x1="934.9" y1="334.4" x2="1024.6" y2="251"/>
<line class="st3" x1="934.9" y1="251" x2="1024.6" y2="334.4"/>
<rect x="934.9" y="340.9" class="st3" width="89.7" height="83.4"/>
<line class="st3" x1="934.9" y1="424.3" x2="1024.6" y2="340.9"/>
<line class="st3" x1="934.9" y1="340.9" x2="1024.6" y2="424.3"/>
<rect x="483.6" y="369.6" class="st3" width="58.1" height="53.6"/>
<line class="st3" x1="483.6" y1="423.2" x2="541.7" y2="369.6"/>
<line class="st3" x1="483.6" y1="369.6" x2="541.7" y2="423.2"/>
<rect x="548.6" y="369.6" class="st3" width="58.1" height="53.6"/>
<line class="st3" x1="548.6" y1="423.2" x2="606.7" y2="369.6"/>
<line class="st3" x1="548.6" y1="369.6" x2="606.7" y2="423.2"/>
<rect x="613.6" y="369.6" class="st3" width="58.1" height="53.6"/>
<line class="st3" x1="613.6" y1="423.2" x2="671.7" y2="369.6"/>
<line class="st3" x1="613.6" y1="369.6" x2="671.7" y2="423.2"/>
<rect x="483.6" y="432" class="st3" width="58.1" height="53.6"/>
<line class="st3" x1="483.6" y1="485.6" x2="541.7" y2="432"/>
<line class="st3" x1="483.6" y1="432" x2="541.7" y2="485.6"/>
<rect x="548.6" y="432" class="st3" width="58.1" height="53.6"/>
<line class="st3" x1="548.6" y1="485.6" x2="606.7" y2="432"/>
<line class="st3" x1="548.6" y1="432" x2="606.7" y2="485.6"/>
<rect x="613.6" y="432" class="st3" width="58.1" height="53.6"/>
<line class="st3" x1="613.6" y1="485.6" x2="671.7" y2="432"/>
<line class="st3" x1="613.6" y1="432" x2="671.7" y2="485.6"/>
<rect x="483.6" y="494.4" class="st3" width="58.1" height="53.6"/>
<line class="st3" x1="483.6" y1="548" x2="541.7" y2="494.4"/>
<line class="st3" x1="483.6" y1="494.4" x2="541.7" y2="548"/>
<rect x="548.6" y="494.4" class="st3" width="58.1" height="53.6"/>
<line class="st3" x1="548.6" y1="548" x2="606.7" y2="494.4"/>
<line class="st3" x1="548.6" y1="494.4" x2="606.7" y2="548"/>
<rect x="613.6" y="494.4" class="st3" width="58.1" height="53.6"/>
<line class="st3" x1="613.6" y1="548" x2="671.7" y2="494.4"/>
<line class="st3" x1="613.6" y1="494.4" x2="671.7" y2="548"/>
<rect x="135.4" y="375.8" class="st3" width="94.5" height="55.5"/>
<line class="st3" x1="135.4" y1="431.3" x2="229.9" y2="375.8"/>
<line class="st3" x1="135.4" y1="375.8" x2="229.9" y2="431.3"/>
<rect x="235.3" y="375.8" class="st3" width="94.5" height="55.5"/>
<line class="st3" x1="235.3" y1="431.3" x2="329.8" y2="375.8"/>
<line class="st3" x1="235.3" y1="375.8" x2="329.8" y2="431.3"/>
<rect x="135.4" y="500.6" class="st3" width="94.5" height="85.3"/>
<line class="st3" x1="135.4" y1="585.9" x2="229.9" y2="500.6"/>
<line class="st3" x1="135.4" y1="500.6" x2="229.9" y2="585.9"/>
<rect x="235.3" y="500.6" class="st3" width="94.5" height="85.3"/>
<line class="st3" x1="235.3" y1="585.9" x2="329.8" y2="500.6"/>
<line class="st3" x1="235.3" y1="500.6" x2="329.8" y2="585.9"/>
<text transform="matrix(1 0 0 1 172.4252 624.5849)" class="st1 st4">Homepage</text>
<text transform="matrix(1 0 0 1 532.4838 624.5849)" class="st1 st4">About Us</text>
<text transform="matrix(1 0 0 1 877.5648 624.5849)" class="st1 st4">Template</text>
</svg>
