<?xml version="1.0" encoding="utf-8"?>
<!-- Generator: Adobe Illustrator 22.0.1, SVG Export Plug-In . SVG Version: 6.00 Build 0)  -->
<svg version="1.1" id="Layer_1" xmlns="http://www.w3.org/2000/svg" xmlns:xlink="http://www.w3.org/1999/xlink" x="0px" y="0px"
	 viewBox="0 0 100 100" style="enable-background:new 0 0 100 100;" xml:space="preserve">
<style type="text/css">
	.st0{fill:none;stroke:url(#SVGID_1_);stroke-width:1.1647;stroke-miterlimit:10;}
	.st1{fill:url(#SVGID_2_);}
	.st2{fill:url(#SVGID_3_);}
	.st3{fill:url(#SVGID_4_);}
</style>
<g>
	<linearGradient id="SVGID_1_" gradientUnits="userSpaceOnUse" x1="0.6818" y1="50" x2="99.3182" y2="50">
		<stop  offset="0" style="stop-color:#02A3AD"/>
		<stop  offset="1" style="stop-color:#164496"/>
	</linearGradient>
	<path class="st0" d="M1.3,50C1.3,23.1,23.1,1.3,50,1.3c26.9,0,48.7,21.8,48.7,48.7c0,26.9-21.8,48.7-48.7,48.7
		C23.1,98.7,1.3,76.9,1.3,50z"/>
	<g id="_x33_4hbmL.tif">
		<g>
			<linearGradient id="SVGID_2_" gradientUnits="userSpaceOnUse" x1="25.4674" y1="50" x2="74.5326" y2="50">
				<stop  offset="0" style="stop-color:#02A3AD"/>
				<stop  offset="1" style="stop-color:#164496"/>
			</linearGradient>
			<path class="st1" d="M50,25.4c3.3,0.1,6.6,0.1,9.9,0.2c2.9,0.1,5.6,0.6,8.1,2.1c3.3,2,5.2,4.9,5.9,8.6c0.4,2.2,0.5,4.5,0.6,6.8
				c0.1,4.9,0,9.7,0,14.6c0,2.6-0.1,5.1-1,7.6c-1.6,4.8-5,7.7-9.9,8.6c-2.2,0.4-4.5,0.5-6.8,0.6c-4.9,0.1-9.7,0-14.6,0
				c-2.6,0-5.1-0.1-7.6-1c-4.8-1.6-7.7-5-8.6-9.9c-0.4-2.2-0.5-4.5-0.6-6.8c-0.1-4.9,0-9.7,0-14.6c0-2.6,0.1-5.1,1-7.6
				c1.6-4.8,5-7.7,9.9-8.6c2.2-0.4,4.5-0.5,6.8-0.6C45.5,25.4,47.7,25.5,50,25.4C50,25.5,50,25.5,50,25.4z M70.2,49.6
				C70.2,49.6,70.1,49.6,70.2,49.6c-0.1-1.9-0.1-3.9-0.1-5.8c0-1.9-0.1-3.7-0.3-5.6c-0.4-4.1-2.9-7-7-7.8c-2.1-0.4-4.4-0.5-6.6-0.5
				c-4.2-0.1-8.3-0.1-12.5,0c-2.1,0-4.2,0.1-6.2,0.4c-3.5,0.6-6,2.6-7,6.1c-0.3,1.1-0.5,2.3-0.5,3.5c-0.1,4.4-0.2,8.9-0.2,13.3
				c0,2.8,0.1,5.7,0.3,8.5c0.4,4.2,2.9,7.1,7.1,7.8c2.1,0.4,4.3,0.4,6.5,0.5c4.1,0.1,8.2,0.1,12.3,0c1.9,0,3.8-0.1,5.6-0.3
				c1.7-0.2,3.4-0.7,4.8-1.9c2.3-1.8,3.2-4.3,3.3-7.1C70.1,57.1,70.1,53.4,70.2,49.6z"/>
			<linearGradient id="SVGID_3_" gradientUnits="userSpaceOnUse" x1="37.4047" y1="50.0248" x2="62.5953" y2="50.0248">
				<stop  offset="0" style="stop-color:#02A3AD"/>
				<stop  offset="1" style="stop-color:#164496"/>
			</linearGradient>
			<path class="st2" d="M62.6,50c0,7-5.6,12.6-12.6,12.6c-7,0-12.6-5.6-12.6-12.7c0-6.9,5.7-12.5,12.7-12.5
				C57,37.4,62.6,43.1,62.6,50z M50,58.2c4.5,0,8.2-3.7,8.2-8.2c0-4.5-3.7-8.2-8.2-8.2c-4.5,0-8.2,3.7-8.2,8.2
				C41.8,54.5,45.5,58.2,50,58.2z"/>
			<linearGradient id="SVGID_4_" gradientUnits="userSpaceOnUse" x1="60.1269" y1="36.9432" x2="66.0355" y2="36.9432">
				<stop  offset="0" style="stop-color:#02A3AD"/>
				<stop  offset="1" style="stop-color:#164496"/>
			</linearGradient>
			<path class="st3" d="M66,36.9c0,1.6-1.3,3-2.9,3c-1.6,0-3-1.4-3-3c0-1.6,1.3-2.9,2.9-2.9C64.7,34,66,35.3,66,36.9z"/>
		</g>
	</g>
</g>
</svg>
