<?xml version="1.0" encoding="utf-8"?>
<!-- Generator: Adobe Illustrator 22.0.1, SVG Export Plug-In . SVG Version: 6.00 Build 0)  -->
<svg version="1.1" id="Layer_1" xmlns="http://www.w3.org/2000/svg" xmlns:xlink="http://www.w3.org/1999/xlink" x="0px" y="0px"
	 viewBox="0 0 100 100" style="enable-background:new 0 0 100 100;" xml:space="preserve">
<style type="text/css">
	.st0{fill:none;stroke:url(#SVGID_1_);stroke-width:1.1647;stroke-miterlimit:10;}
	.st1{fill:url(#SVGID_2_);}
</style>
<g>
	<linearGradient id="SVGID_1_" gradientUnits="userSpaceOnUse" x1="0.6817" y1="50" x2="99.3183" y2="50">
		<stop  offset="0" style="stop-color:#02A3AD"/>
		<stop  offset="1" style="stop-color:#164496"/>
	</linearGradient>
	<path class="st0" d="M1.3,50C1.3,23.1,23.1,1.3,50,1.3c26.9,0,48.7,21.8,48.7,48.7S76.9,98.7,50,98.7C23.1,98.7,1.3,76.9,1.3,50z"
		/>
	<g>
		<g>
			<linearGradient id="SVGID_2_" gradientUnits="userSpaceOnUse" x1="36.1777" y1="49.9996" x2="63.8223" y2="49.9996">
				<stop  offset="0" style="stop-color:#02A3AD"/>
				<stop  offset="1" style="stop-color:#164496"/>
			</linearGradient>
			<path class="st1" d="M52.6,36.2V25.6h-6.8c-0.2,0.4-0.2,0.9-0.2,1.3c-0.1,0.2-0.2,0.4-0.2,0.6c-0.7,3.9-2.7,6.7-6.2,8.2
				c-1,0.5-2,0.5-3,0.5v8.5h5c0.1,12,0.1,18.2,0.1,18.5V64c0.6,5.2,3.4,8.4,8.2,9.6c2,0.5,4.1,0.8,6.2,0.8c2.7-0.1,5.4-0.6,8.1-1.4
				V62.9c-1.6,0.5-3,0.9-4.2,1.3c-2.4,0.7-4.5,0.2-6.1-1.3c-0.2-0.2-0.4-0.6-0.5-0.9c-0.2-1.3-0.4-2.6-0.4-3.8V44.8h10.9v-8.5H52.6z
				 M52.6,36.2"/>
		</g>
	</g>
</g>
</svg>
