<?xml version="1.0" encoding="utf-8"?>
<!-- Generator: Adobe Illustrator 22.0.1, SVG Export Plug-In . SVG Version: 6.00 Build 0)  -->
<svg version="1.1" id="Layer_1" xmlns="http://www.w3.org/2000/svg" xmlns:xlink="http://www.w3.org/1999/xlink" x="0px" y="0px"
	 viewBox="0 0 100 100" style="enable-background:new 0 0 100 100;" xml:space="preserve">
<style type="text/css">
	.st0{fill:none;stroke:url(#SVGID_1_);stroke-width:1.1647;stroke-miterlimit:10;}
	.st1{fill:url(#SVGID_2_);}
</style>
<g>
	<linearGradient id="SVGID_1_" gradientUnits="userSpaceOnUse" x1="0.6817" y1="50" x2="99.3183" y2="50">
		<stop  offset="0" style="stop-color:#02A3AD"/>
		<stop  offset="1" style="stop-color:#164496"/>
	</linearGradient>
	<path class="st0" d="M1.3,50C1.3,23.1,23.1,1.3,50,1.3S98.7,23.1,98.7,50S76.9,98.7,50,98.7S1.3,76.9,1.3,50z"/>
	<g>
		<linearGradient id="SVGID_2_" gradientUnits="userSpaceOnUse" x1="25.2321" y1="50" x2="74.7677" y2="50">
			<stop  offset="0" style="stop-color:#02A3AD"/>
			<stop  offset="1" style="stop-color:#164496"/>
		</linearGradient>
		<path class="st1" d="M74.8,34.6c-1.8,0.8-3.8,1.4-5.8,1.6c2.1-1.3,3.7-3.2,4.5-5.6c-2,1.2-4.1,2-6.5,2.5c-1.9-2-4.5-3.2-7.4-3.2
			c-5.6,0-10.2,4.6-10.2,10.2c0,0.8,0.1,1.6,0.3,2.3c-8.4-0.4-15.9-4.5-20.9-10.6c-0.9,1.5-1.4,3.2-1.4,5.1c0,3.5,1.8,6.6,4.5,8.5
			c-1.7-0.1-3.2-0.5-4.6-1.3c0,0,0,0.1,0,0.1c0,4.9,3.5,9,8.2,10c-0.9,0.2-1.8,0.4-2.7,0.4c-0.7,0-1.3-0.1-1.9-0.2
			c1.3,4,5,7,9.5,7.1c-3.5,2.7-7.9,4.4-12.6,4.4c-0.8,0-1.6,0-2.4-0.1c4.5,2.9,9.8,4.6,15.6,4.6c18.7,0,28.9-15.5,28.9-28.9
			c0-0.4,0-0.9,0-1.3C71.7,38.5,73.4,36.7,74.8,34.6L74.8,34.6z M74.8,34.6"/>
	</g>
</g>
</svg>
