<?xml version="1.0" encoding="utf-8"?>
<!-- Generator: Adobe Illustrator 22.0.1, SVG Export Plug-In . SVG Version: 6.00 Build 0)  -->
<svg version="1.1" id="Layer_1" xmlns="http://www.w3.org/2000/svg" xmlns:xlink="http://www.w3.org/1999/xlink" x="0px" y="0px"
	 viewBox="0 0 1553 2303.6" style="enable-background:new 0 0 1553 2303.6;" xml:space="preserve">
<style type="text/css">
	.st0{font-family:'OmnesSemiBold';}
	.st1{font-size:48px;}
	.st2{font-family:'OmnesMedium';}
	.st3{font-family:'Omnes-Regular';}
	.st4{font-family:'OmnesLight';}
	.st5{fill:#020203;}
	.st6{font-size:108.8549px;}
	.st7{fill:none;stroke:url(#SVGID_1_);stroke-width:18.43;stroke-linecap:round;stroke-linejoin:round;stroke-miterlimit:10;}
	.st8{font-size:161.3153px;}
	.st9{font-size:122.0063px;}
	.st10{letter-spacing:1;}
	.st11{fill:none;stroke:url(#SVGID_2_);stroke-width:30.9857;stroke-linecap:round;stroke-linejoin:round;stroke-miterlimit:10;}
</style>
<text transform="matrix(1 0 0 1 285.25 1824.8223)"><tspan x="0" y="0" class="st0 st1">Omnes SemiBold</tspan><tspan x="0" y="57.6" class="st2 st1">Omnes Medium</tspan><tspan x="0" y="115.2" class="st3 st1">Omnes Regular</tspan><tspan x="0" y="172.8" class="st4 st1">Omnes Light</tspan></text>
<g>
	<text transform="matrix(1 0 0 1 653.0674 1453.9668)" class="st5 st3 st6">Ryan</text>
	<linearGradient id="SVGID_1_" gradientUnits="userSpaceOnUse" x1="290.5688" y1="1427.1674" x2="587.5783" y2="1427.1674">
		<stop  offset="0" style="stop-color:#02A3AD"/>
		<stop  offset="1" style="stop-color:#164496"/>
	</linearGradient>
	<path class="st7" d="M466.2,1425.8h98.6c8,0,14.4,7,13.5,15c-7.5,70.9-67.4,126.1-140.3,126.1c-68.2,0-125.2-48.5-138.2-112.8
		 M409.8,1287.5c-55.3,11.2-98.8,54.8-110,110 M438,1529.2v-65.8"/>
	<text transform="matrix(1 0 0 1 653.0674 1554.2695)" class="st5 st3 st6">Grant-Wylie</text>
</g>
<text id="XMLID_1_" transform="matrix(1 0 0 1 438.2127 298.2378)" class="st2 st8">Branding</text>
<text transform="matrix(1 0 0 1 285.25 1088.2794)" class="st5 st3 st9 st10">Ryan Grant-Wylie</text>
<linearGradient id="SVGID_2_" gradientUnits="userSpaceOnUse" x1="508.4201" y1="695.4009" x2="1007.7723" y2="695.4009">
	<stop  offset="0" style="stop-color:#02A3AD"/>
	<stop  offset="1" style="stop-color:#164496"/>
</linearGradient>
<path class="st11" d="M803.7,693h165.7c13.5,0,24.1,11.7,22.7,25.2c-12.6,119.1-113.4,212-235.8,212
	c-114.7,0-210.4-81.5-232.4-189.7 M708.9,460.6c-92.9,18.9-166.1,92.1-185,185 M756.3,866.9V756.3"/>
<g>
	<defs>
		<rect id="SVGID_3_" x="749" y="1780.3" width="228.5" height="228.5"/>
	</defs>
	<clipPath id="SVGID_4_">
		<use xlink:href="#SVGID_3_"  style="overflow:visible;"/>
	</clipPath>
	<g style="clip-path:url(#SVGID_4_);">
		
			<image style="overflow:visible;" width="213" height="213" xlink:href="A276D65441813AB9.jpg"  transform="matrix(1.0728 0 0 1.0728 748.9755 1780.2599)">
		</image>
	</g>
</g>
<g>
	<defs>
		<rect id="SVGID_5_" x="1003.4" y="1780.3" width="228.5" height="228.5"/>
	</defs>
	<clipPath id="SVGID_6_">
		<use xlink:href="#SVGID_5_"  style="overflow:visible;"/>
	</clipPath>
	<g style="clip-path:url(#SVGID_6_);">
		
			<image style="overflow:visible;" width="213" height="213" xlink:href="A276D65441813ABB.jpg"  transform="matrix(1.0728 0 0 1.0728 1003.3829 1780.2599)">
		</image>
	</g>
</g>
<g>
	<defs>
		<rect id="SVGID_7_" x="929.7" y="2040" width="129.1" height="129.1"/>
	</defs>
	<clipPath id="SVGID_8_">
		<use xlink:href="#SVGID_7_"  style="overflow:visible;"/>
	</clipPath>
	<g style="clip-path:url(#SVGID_8_);">
		
			<image style="overflow:visible;" width="213" height="213" xlink:href="A276D65441813ABE.jpg"  transform="matrix(0.6062 0 0 0.6062 929.725 2039.9565)">
		</image>
	</g>
</g>
<g>
	<defs>
		<rect id="SVGID_9_" x="749" y="2040" width="129.1" height="129.1"/>
	</defs>
	<clipPath id="SVGID_10_">
		<use xlink:href="#SVGID_9_"  style="overflow:visible;"/>
	</clipPath>
	<g style="clip-path:url(#SVGID_10_);">
		
			<image style="overflow:visible;" width="213" height="213" xlink:href="A276D65441813ABF.jpg"  transform="matrix(0.6062 0 0 0.6062 748.9755 2039.9565)">
		</image>
	</g>
</g>
<g>
	<defs>
		<rect id="SVGID_11_" x="1102.8" y="2040" width="129.1" height="129.1"/>
	</defs>
	<clipPath id="SVGID_12_">
		<use xlink:href="#SVGID_11_"  style="overflow:visible;"/>
	</clipPath>
	<g style="clip-path:url(#SVGID_12_);">
		
			<image style="overflow:visible;" width="213" height="213" xlink:href="A276D65441813ABA.jpg"  transform="matrix(0.6062 0 0 0.6062 1102.7593 2039.9565)">
		</image>
	</g>
</g>
</svg>
